<svg id="GooglePay_Logomark_Primary_RGB_436x173px" data-name="GooglePay Logomark Primary RGB 436x173px" xmlns="http://www.w3.org/2000/svg" viewBox="0 0 42 17.2"><defs><style>.cls-1{fill:#ea5b0c;}.cls-2{fill:#df1612;}.cls-3{fill:#231f20;}.cls-4{fill:#f59e00;}</style></defs><rect class="cls-1" x="17.55" y="2.4" width="6.9" height="12.4"/><path class="cls-2" d="M18,8.6a7.9,7.9,0,0,1,3-6.2,7.88,7.88,0,1,0,0,12.4A7.9,7.9,0,0,1,18,8.6Z"/><path class="cls-3" d="M33,13.49v-.26h.11v-.05h-.26v.05H33v.26Zm.51,0v-.31h-.08l-.09.21-.09-.21h-.08v.31h0v-.24l.09.2h.06l.08-.2v.24Z"/><path class="cls-4" d="M33.76,8.6A7.89,7.89,0,0,1,21,14.8,7.89,7.89,0,0,0,21,2.4,7.89,7.89,0,0,1,33.76,8.6Z"/></svg>