<svg id="GooglePay_Logomark_Primary_RGB_436x173px" data-name="GooglePay Logomark Primary RGB 436x173px" xmlns="http://www.w3.org/2000/svg" viewBox="0 0 42 17.2"><defs><style>.cls-1{fill:#1a1f71;}</style></defs><path class="cls-1" d="M16.2,2.39,11,14.84H7.58L5,4.9a1.36,1.36,0,0,0-.76-1.09A13.93,13.93,0,0,0,1.07,2.75l.07-.36H6.63A1.51,1.51,0,0,1,8.11,3.66l1.36,7.21,3.35-8.48Zm13.35,8.39C29.56,7.49,25,7.31,25,5.84c0-.45.44-.92,1.37-1a6.05,6.05,0,0,1,3.18.56l.56-2.65a8.65,8.65,0,0,0-3-.55c-3.19,0-5.43,1.7-5.45,4.12,0,1.79,1.6,2.79,2.82,3.39s1.68,1,1.67,1.54c0,.84-1,1.21-1.92,1.22a6.69,6.69,0,0,1-3.31-.78l-.59,2.73a10.07,10.07,0,0,0,3.59.66c3.38,0,5.6-1.67,5.61-4.26M38,14.84h3L38.33,2.39H35.58a1.46,1.46,0,0,0-1.37.91L29.38,14.84h3.38L33.43,13h4.13Zm-3.59-4.41,1.69-4.68,1,4.68Zm-13.55-8L18.14,14.84H14.92L17.59,2.39Z"/></svg>