<?xml version="1.0" encoding="UTF-8"?>
<svg width="500px" height="500px" viewBox="0 0 500 500" version="1.1" xmlns="http://www.w3.org/2000/svg" xmlns:xlink="http://www.w3.org/1999/xlink">
    <title>logo-pagopa-2021</title>
    <g id="logo-pagopa-2021" stroke="none" stroke-width="1" fill="none" fill-rule="evenodd">
        <g id="Fill-231" transform="translate(0.000000, 85.000000)" fill="#0066CC">
            <path d="M70.3318844,57.0863571 L68.8394306,50.7434285 L64.548626,46.2660672 L57.2729138,43.4677164 L47.3854075,42.5349327 L44.7736134,42.5349327 L44.7736134,58.9519243 L44.7736134,124.246777 L25.558271,124.246777 L25.558271,58.9519243 L44.7736134,58.9519243 L44.7736134,42.5349327 L9.39560642e-14,42.5349327 L9.39560642e-14,183.571815 L25.558271,183.571815 L25.7448277,141.783109 L25.7448277,140.663769 L48.1316344,140.663769 L57.832584,139.730985 L64.7351827,136.932634 L68.8394306,132.455273 L70.3318844,125.925788 L70.3318844,124.246777 L70.3318844,58.9519243 L70.3318844,57.0863571 M149.431935,57.0863571 L147.939481,50.7434285 L143.648676,46.2660672 L136.746078,43.4677164 L127.045128,42.5349327 L123.873664,42.5349327 L123.873664,124.246777 L104.658321,124.246777 L104.658321,99.0616197 L123.873664,99.0616197 L123.873664,124.246777 L123.873664,42.5349327 L101.859971,42.7214895 L92.159021,43.6542731 L85.0698655,46.4526239 L80.7790609,50.9299853 L79.4731638,57.0863571 L79.4731638,72.0108949 L104.471765,71.8243382 L104.658321,58.9519243 L123.873664,58.9519243 L123.873664,82.6446281 L101.486857,82.6446281 L91.7859075,83.5774117 L84.696752,86.3757626 L80.5925042,90.8531239 L79.2866071,97.1960525 L79.1000504,125.925788 L80.4059474,132.268716 L84.5101953,136.932634 L91.2262373,139.730985 L100.554073,140.663769 L149.245378,140.663769 L149.245378,124.246777 L149.245378,99.0616197 L149.431935,58.9519243 L149.431935,57.0863571 M230.770666,42.5349327 L205.212395,42.5349327 L205.212395,58.9519243 L205.212395,124.246777 L185.997052,124.246777 L185.997052,58.9519243 L205.212395,58.9519243 L205.212395,42.5349327 L183.571815,42.5349327 L173.497752,43.4677164 L166.408597,46.2660672 L161.931235,50.7434285 L160.438781,57.0863571 L160.438781,125.925788 L161.931235,132.455273 L166.035483,136.932634 L172.938082,139.730985 L182.825588,140.663769 L205.212395,140.663769 L205.212395,141.596552 L205.212395,167.34138 L185.997052,167.34138 L185.997052,154.28241 L160.438781,154.28241 L160.438781,169.020391 L161.931235,175.363319 L166.035483,180.027237 L173.124639,182.639031 L182.825588,183.571815 L208.383859,183.571815 L218.271365,182.639031 L225.173964,180.027237 L229.464769,175.363319 L230.770666,169.020391 L230.770666,167.34138 L230.770666,124.246777 L230.770666,58.9519243 L230.770666,42.5349327 M309.870716,57.0863571 L308.378262,50.7434285 L304.274015,46.2660672 L297.371416,43.4677164 L287.670466,42.5349327 L284.499002,42.5349327 L284.499002,58.9519243 L284.312445,124.246777 L265.097103,124.246777 L265.097103,58.9519243 L284.499002,58.9519243 L284.499002,42.5349327 L262.112195,42.5349327 L252.224689,43.4677164 L245.135533,46.2660672 L241.031286,50.7434285 L239.538832,57.0863571 L239.538832,125.925788 L241.031286,132.455273 L245.135533,136.932634 L252.224689,139.730985 L262.112195,140.663769 L286.924239,140.663769 L296.811746,139.730985 L304.087458,136.932634 L308.378262,132.455273 L309.870716,125.925788 L309.870716,124.246777 L309.870716,58.9519243 L309.870716,57.0863571 M405.201201,14.5514244 L403.522191,8.20849579 L398.298603,3.54457773 L389.716993,0.932783613 L377.777363,0 L374.792456,0 L374.792456,16.2304349 L374.792456,81.338731 L351.845979,81.338731 L351.845979,16.2304349 L374.792456,16.2304349 L374.792456,0 L321.250676,0 L321.250676,140.477212 L351.845979,140.477212 L352.032535,97.7557226 L378.710147,97.7557226 L390.276664,96.822939 L398.671716,94.0245882 L403.522191,89.5472268 L405.201201,83.2042983 L405.201201,81.338731 L405.201201,16.2304349 L405.201201,14.5514244 M499.598903,133.574613 L499.598903,97.5691659 L499.598903,81.338731 L499.412346,16.4169916 L499.412346,14.7379811 L497.919893,8.39505252 L492.882861,3.73113445 L484.487809,1.11934034 L472.921292,0.186556723 L469.190157,0.186556723 L469.190157,16.4169916 L469.190157,81.338731 L446.057124,81.338731 L446.057124,16.4169916 L469.190157,16.4169916 L469.190157,0.186556723 L442.325989,0.186556723 L430.572916,1.11934034 L422.177863,3.73113445 L417.140832,8.39505252 L415.461821,14.7379811 L415.461821,140.663769 L446.057124,140.663769 L446.057124,97.5691659 L469.190157,97.5691659 L469.190157,133.574613 L468.44393,147.939481 L466.76492,162.117792 L463.780012,175.736433 L459.675764,188.98196 L454.638733,201.667817 L448.668918,213.794004 L441.579762,225.360521 L433.74438,236.367367 L424.976214,246.627987 L415.461821,256.14238 L405.201201,264.910546 L394.194355,272.745928 L382.627838,279.835084 L370.501651,285.804899 L357.815794,291.028487 L344.570267,294.946178 L330.951626,297.931086 L316.773315,299.796653 L302.408447,300.356323 L288.04358,299.796653 L273.865269,297.931086 L260.060071,294.946178 L246.627987,290.84193 L233.755573,285.804899 L221.44283,279.648527 L209.689756,272.745928 L198.496353,264.723989 L188.049176,255.955823 L186.743279,254.649926 L178.534784,246.441431 L169.766618,235.994254 L185.064269,224.427737 L126.298901,184.877712 L126.298901,270.320691 L145.887357,254.649926 L155.40175,265.84333 L165.66237,276.290506 L176.669216,285.991456 L188.608847,294.946178 L200.92159,302.781561 L213.980561,309.870716 L227.599202,316.027088 L241.777512,321.06412 L256.515494,325.168367 L271.440031,328.153275 L286.737683,330.018842 L302.408447,330.578512 L316.586758,330.018842 L330.391956,328.526388 L343.82404,326.101151 L357.069567,322.929687 L369.755424,318.638882 L382.254725,313.788407 L394.194355,308.005149 L405.760872,301.289107 L407.253325,300.356323 L416.767718,294.013395 L427.214895,285.991456 L437.102401,277.409846 L446.430237,268.08201 L455.011846,258.194504 L463.033785,247.747328 L470.309498,236.740481 L477.02554,225.173964 L482.808798,213.234334 L487.659273,200.735033 L491.950077,188.049176 L495.121542,174.803649 L497.546779,161.371565 L499.039233,147.566368 L499.598903,133.574613" id="Fill-230"></path>
        </g>
    </g>
</svg>